<?xml version="1.0" encoding="utf-8"?>
<!-- Generator: Adobe Illustrator 27.5.0, SVG Export Plug-In . SVG Version: 6.00 Build 0)  -->
<svg version="1.1" id="Layer_1" xmlns="http://www.w3.org/2000/svg" xmlns:xlink="http://www.w3.org/1999/xlink" x="0px" y="0px"
	 viewBox="0 0 341.607 400" style="enable-background:new 0 0 341.607 400;" xml:space="preserve">
<g>
	<g>
		<g>
			<path style="fill:#FDAA2D;" d="M333.066,390l-24.835-57.573l-78.229-34.854c-4.759-2.12-10.056-2.72-15.168-1.716l-43.784,8.594
				h-0.495l-43.784-8.594c-5.112-1.003-10.409-0.404-15.168,1.716l-78.229,34.854L8.54,390H333.066z"/>
			<path style="fill:#FDAA2D;" d="M60.513,377.439l-0.716-2.319c0,0-0.829-2.284-0.829-2.284c-0.943-2.7-2.394-6.46-3.549-9.035
				c-3.063-7.034-6.695-13.86-11.228-20.058c-3.079-4.169-6.475-8.231-10.609-11.409l-0.207,0.092v0l-0.084,0.194
				c2.411,2.028,4.517,4.444,6.444,6.95c1.138,1.444,2.452,3.321,3.451,4.866c5.837,8.979,9.962,19.07,13.009,29.304l0.694,2.275
				l0.582,2.31c0.383,1.564,1.415,5.419,1.671,6.94c0.202,1.014,0.604,3.019,0.947,4.734h3.918c-0.471-1.85-1.114-4.384-1.421-5.577
				C62.241,382.867,60.978,378.995,60.513,377.439z"/>
			<path style="fill:#FDAA2D;" d="M282.531,385.266c0.258-1.543,1.294-5.393,1.671-6.94l0.582-2.31l0.694-2.275
				c2.944-9.843,6.847-19.596,12.375-28.292c2.931-4.636,6.313-9.199,10.48-12.785l-0.102-0.236l-0.166-0.074
				c-2.549,1.938-4.761,4.231-6.829,6.644c-1.516,1.74-3.139,3.838-4.449,5.738c-6.57,9.196-11.195,19.75-14.911,30.386
				c-0.469,1.519-1.662,5.377-2.149,6.961c-0.655,2.237-1.403,5.347-2.056,7.918h3.914
				C281.926,388.292,282.326,386.287,282.531,385.266z"/>
		</g>
		<path style="fill:#F6B687;" d="M207.55,238.432c0,0-6.107,44.768,2.515,56.706s28.325,11.275,28.325,11.275
			s-1.397,54.32-65.069,54.32h-5.035c-63.672,0-65.069-54.32-65.069-54.32s19.703,0.663,28.325-11.275
			c8.622-11.938,2.515-56.706,2.515-56.706H207.55z"/>
		<path style="opacity:0.5;fill:#F6B687;" d="M134.056,238.432c0,0,1.869,13.708,2.078,27.976c0.084,0.056,0.168,0.113,0.253,0.168
			c7.775,5.114,16.191,9.255,24.85,12.643c4.092,1.601,8.165,3.515,12.666,2.973c4.179-0.503,8.008-2.57,11.842-4.164
			c6.531-2.714,13.312-5.974,19.71-9.904c0.074-14.864,2.096-29.693,2.096-29.693H134.056z"/>
		<g>
			<path style="fill:#FDAA2D;" d="M170.803,366.661c39.984,0,72.397-27.039,72.397-60.394c0-0.956-0.03-1.906-0.083-2.852
				l-13.039-5.809c0.288,1.985,0.44,4.004,0.44,6.054c0,27.512-26.736,49.815-59.716,49.815c-32.98,0-59.716-22.303-59.716-49.815
				c0-2.049,0.152-4.069,0.44-6.054l-13.039,5.809c-0.053,0.945-0.083,1.896-0.083,2.852
				C98.406,339.622,130.819,366.661,170.803,366.661z"/>
			<path style="fill:#FDAA2D;" d="M170.803,366.661c39.984,0,72.397-27.039,72.397-60.394c0-0.956-0.03-1.906-0.083-2.852
				l-13.039-5.809c0.288,1.985,0.44,4.004,0.44,6.054c0,27.512-26.736,49.815-59.716,49.815c-32.98,0-59.716-22.303-59.716-49.815
				c0-2.049,0.152-4.069,0.44-6.054l-13.039,5.809c-0.053,0.945-0.083,1.896-0.083,2.852
				C98.406,339.622,130.819,366.661,170.803,366.661z"/>
		</g>
	</g>
	<g>
		<path style="fill:#F6B687;" d="M245.478,94.516c-4.187-7.26-9.76-13.374-16.839-17.895c-6.882-4.395-14.658-7.233-22.59-9.052
			c-8.279-1.899-16.786-2.714-25.27-2.849c-8.171-0.131-16.351,0.373-24.459,1.381c-6.88,0.855-13.736,2.046-20.454,3.77
			c-7.208,1.85-14.315,4.261-21.006,7.536c-6.514,3.188-12.829,7.259-17.548,12.843c-0.018,0.021-0.036,0.043-0.054,0.064
			c-2.929,3.485-4.328,8.011-4.017,12.553c0.294,4.309,0.666,8.586,0.911,12.76c2.021,34.454,3.819,72.202,16.599,104.654
			c4.801,12.193,14.899,21.521,25.637,28.583c7.775,5.114,16.191,9.255,24.85,12.643c4.092,1.601,8.165,3.514,12.666,2.973
			c4.179-0.503,8.008-2.57,11.842-4.164c18.814-7.819,39.705-20.154,47.534-40.035c6.246-15.86,9.112-33.122,11.431-49.96
			c2.473-17.957,4.092-36.016,5.134-54.113c0.124-2.158,0.281-4.346,0.444-6.555c0.219-2.955-0.29-5.921-1.499-8.627
			C247.796,98.803,246.696,96.628,245.478,94.516z"/>
		<g>
			<g>
				<g>
					<g>
						<path style="fill:#593A34;" d="M153.204,138.364c-0.803-9.715-7.501-11.608-7.501-11.608c1.875,1.607,2.054,3.572,2.054,3.572
							c-4.108-4.554-10.626-4.018-10.626-4.018c2.679,1.25,4.018,4.018,4.018,4.018c-3.304-4.197-13.573-6.519-17.145-4.911
							c-3.572,1.607-13.484,10.448-13.484,10.448s-1.217,6.402-1.217,6.402c0.068-0.358,0.695-0.863,0.929-1.103
							c0.934-0.958,2.017-1.77,3.157-2.464c1.836-1.119,3.849-1.934,5.915-2.516c2.99-0.843,6.103-1.204,9.203-1.259
							c4.371-0.077,8.741,0.45,13.021,1.307c2.405,0.482,4.799,1.027,7.158,1.701c1.192,0.34,2.378,0.708,3.544,1.128
							C152.981,139.328,153.284,139.326,153.204,138.364z"/>
						<path style="fill:#593A34;" d="M153.668,138.856c0,0-0.16-6.713-3.836-10.123c0,0,4.742,1.971,5.275,10.07
							C155.106,138.802,154.094,139.708,153.668,138.856z"/>
						<path style="fill:#593A34;" d="M155.537,137.535c0,0-0.584-5.417-3.787-7.924c0,0,3.967,1.272,4.946,7.784
							C156.697,137.394,155.94,138.195,155.537,137.535z"/>
					</g>
					<g>
						<path style="fill:#FFFFFF;" d="M153.79,167.912c0,0-9.437,13.068-29.698,4.889c0,0-11.022-3.798-12.057-16.78
							c0,0,8.363-6.133,20.548-5.018C144.769,152.118,153.014,163.475,153.79,167.912z"/>
						<g>
							<circle style="fill:#A97C50;" cx="134.444" cy="161.411" r="11.732"/>
							
								<ellipse transform="matrix(0.9732 -0.2298 0.2298 0.9732 -33.488 35.2066)" style="fill:#241F20;" cx="134.444" cy="161.411" rx="8.492" ry="8.492"/>
							<path style="fill:#FFFFFF;" d="M136.984,159.018c0,1.949,1.58,3.529,3.529,3.529c1.949,0,3.529-1.58,3.529-3.529
								c0-1.949-1.58-3.529-3.529-3.529C138.564,155.488,136.984,157.068,136.984,159.018z"/>
						</g>
						<path style="fill:#231F20;" d="M153.79,167.912c0,0-2.263-11.499-13.762-16.841s-31.328,2.807-31.328,2.807
							s2.083,15.302,15.392,18.923c0,0-9.688-4.256-11.046-15.664c0,0,9.507-6.972,22.273-4.708
							C148.086,154.693,153.79,167.912,153.79,167.912z"/>
					</g>
				</g>
				<g>
					<g>
						<path style="fill:#593A34;" d="M190.332,138.364c0.803-9.715,7.501-11.608,7.501-11.608c-1.875,1.607-2.054,3.572-2.054,3.572
							c4.108-4.554,10.626-4.018,10.626-4.018c-2.679,1.25-4.018,4.018-4.018,4.018c3.304-4.197,13.573-6.519,17.145-4.911
							c3.572,1.607,13.484,10.448,13.484,10.448s1.217,6.402,1.217,6.402c-0.068-0.358-0.694-0.863-0.929-1.103
							c-0.934-0.958-2.016-1.77-3.157-2.464c-1.837-1.119-3.849-1.934-5.915-2.516c-2.99-0.843-6.103-1.204-9.203-1.259
							c-4.371-0.077-8.741,0.45-13.021,1.307c-2.405,0.482-4.799,1.027-7.158,1.701c-1.192,0.34-2.378,0.708-3.544,1.128
							C190.556,139.328,190.252,139.326,190.332,138.364z"/>
						<path style="fill:#593A34;" d="M189.868,138.856c0,0,0.16-6.713,3.836-10.123c0,0-4.742,1.971-5.275,10.07
							C188.43,138.802,189.442,139.708,189.868,138.856z"/>
						<path style="fill:#593A34;" d="M187.999,137.535c0,0,0.584-5.417,3.787-7.924c0,0-3.967,1.272-4.947,7.784
							C186.839,137.394,187.596,138.195,187.999,137.535z"/>
					</g>
					<g>
						<path style="fill:#FFFFFF;" d="M189.746,167.912c0,0,9.437,13.068,29.698,4.889c0,0,11.022-3.798,12.057-16.78
							c0,0-8.363-6.133-20.548-5.018C198.767,152.118,190.522,163.475,189.746,167.912z"/>
						<g>
							<circle style="fill:#A97C50;" cx="209.092" cy="161.411" r="11.732"/>
							
								<ellipse transform="matrix(0.2298 -0.9732 0.9732 0.2298 3.9597 327.8253)" style="fill:#241F20;" cx="209.092" cy="161.411" rx="8.492" ry="8.492"/>
							<path style="fill:#FFFFFF;" d="M206.553,159.018c0,1.949-1.58,3.529-3.529,3.529c-1.949,0-3.529-1.58-3.529-3.529
								c0-1.949,1.58-3.529,3.529-3.529C204.972,155.488,206.553,157.068,206.553,159.018z"/>
						</g>
						<path style="fill:#231F20;" d="M189.746,167.912c0,0,2.264-11.499,13.762-16.841c11.499-5.342,31.328,2.807,31.328,2.807
							s-2.083,15.302-15.392,18.923c0,0,9.688-4.256,11.046-15.664c0,0-9.507-6.972-22.273-4.708
							C195.451,154.693,189.746,167.912,189.746,167.912z"/>
					</g>
				</g>
			</g>
			<g>
				<g style="opacity:0.5;">
					<path style="fill:#F6B687;" d="M186.472,192.138c-0.618-2.845-3.389-5.039-6.065-6.002c-3.429-1.234-7.181-1.659-10.812-1.324
						c-3.322,0.306-7.046,1.115-9.737,3.153c-0.299,0.226-0.585,0.469-0.855,0.727c-4.05,3.871-1.49,9.312,1.543,12.859
						c1.473,1.723,3.233,3.183,5.18,4.292c2.094,1.193,4.562,1.587,6.934,1.385c2.49-0.213,4.94-1.102,6.974-2.562
						c1.671-1.2,3.105-2.843,4.366-4.484C185.724,197.939,187.095,195.003,186.472,192.138z M171.768,196.692
						c-5.802,0-10.506-2.155-10.506-4.813c0-2.658,4.704-4.813,10.506-4.813c5.802,0,10.506,2.155,10.506,4.813
						C182.274,194.537,177.57,196.692,171.768,196.692z"/>
				</g>
				<g>
					<path style="fill:#754C29;" d="M167.71,202.709c-0.932-0.859-2.025-1.465-3.2-1.978c-0.82-0.358-2.909-1.176-3.062,0.345
						c-0.038,0.377,0.148,0.744,0.388,1.037c1.355,1.659,3.727,3.016,5.906,3.085c0.428,0.014,1.023-0.08,1.179-0.551
						c0.181-0.544-0.369-1.055-0.692-1.413C168.063,203.049,167.889,202.874,167.71,202.709z"/>
					<path style="fill:#754C29;" d="M175.827,202.709c0.932-0.859,2.024-1.465,3.2-1.978c0.82-0.358,2.909-1.176,3.062,0.345
						c0.038,0.377-0.148,0.744-0.388,1.037c-1.355,1.659-3.727,3.016-5.906,3.085c-0.428,0.014-1.023-0.08-1.179-0.551
						c-0.181-0.544,0.37-1.055,0.692-1.413C175.474,203.049,175.647,202.874,175.827,202.709z"/>
				</g>
			</g>
			<g>
				<path style="opacity:0.6;fill:#FED09E;" d="M172.1,233.611c15.893,0,21.734-12.064,21.734-12.064s-12.925-4.787-14.84-5.17
					c-1.915-0.383-7.181,2.011-7.181,2.011h-0.091c0,0-5.266-2.394-7.181-2.011c-1.915,0.383-14.84,5.17-14.84,5.17
					s5.84,12.064,21.733,12.064H172.1z"/>
				<path style="opacity:0.6;fill:#FED09E;" d="M172.1,233.611c15.893,0,21.734-12.064,21.734-12.064s-12.925-4.787-14.84-5.17
					c-1.915-0.383-7.181,2.011-7.181,2.011h-0.091c0,0-5.266-2.394-7.181-2.011c-1.915,0.383-14.84,5.17-14.84,5.17
					s5.84,12.064,21.733,12.064H172.1z"/>
				<path style="fill:#603913;" d="M195.909,221.15c-2.158,1.098-4.584,1.474-6.968,1.675c-2.349,0.202-4.815,0.173-7.172,0.008
					c-2.119,0.939-6.859,1.829-9.998,1.689c-3.458-0.087-6.891-0.779-10.122-1.997c-3.015,0.503-7.252,0.443-10.611-0.236
					c-1.17-0.257-2.336-0.582-3.412-1.144c-0.028-0.015-0.039-0.05-0.025-0.078c1.169,0.064,2.389,0.326,3.567,0.425
					c3.509,0.441,7.041,0.536,10.575,0.565c1.642,0.503,3.309,0.946,5,1.228c5.076,0.956,10.263,0.229,15.077-1.525
					c2.314,0.119,4.738,0.153,7.045,0.009c2.347-0.173,4.662-0.406,7.002-0.736C195.932,221.017,195.973,221.121,195.909,221.15
					L195.909,221.15z"/>
			</g>
		</g>
		<g>
			<path style="fill:#593A34;" d="M113.772,103.472c0,0-6.308,16.365-5.613,27.58c0,0-2.685-1.22-3.417-7.81
				c0,0-6.346,37.098-1.464,63.946c0,0-11.227-14.644-14.644-37.83c0,0-0.314,4.874,1.112,9.154c0,0-24.356-20.178-17.426-44.432
				S113.772,103.472,113.772,103.472z"/>
			<path style="fill:#593A34;" d="M113.772,103.472c0,0-6.308,16.365-5.613,27.58c0,0-2.685-1.22-3.417-7.81
				c0,0-6.346,37.098-1.464,63.946c0,0-11.227-14.644-14.644-37.83c0,0-0.314,4.874,1.112,9.154c0,0-24.356-20.178-17.426-44.432
				S113.772,103.472,113.772,103.472z"/>
		</g>
		<g>
			<path style="fill:#593A34;" d="M179.179,79.853c0,0,18.115-5.678,44.939,10.277c0,0,6.471-41.938-18.405-41.938
				C180.838,48.193,179.179,79.853,179.179,79.853z"/>
			<path style="fill:#593A34;" d="M179.179,79.853c0,0,18.115-5.678,44.939,10.277c0,0,6.471-41.938-18.405-41.938
				C180.838,48.193,179.179,79.853,179.179,79.853z"/>
		</g>
		<path style="fill:#593A34;" d="M241.585,131.85c5.299,26.7,1.834,53.604,1.834,53.604c11.414-18.751,17.528-51.566,17.528-51.566
			c0.815,7.337-2.446,15.694-2.446,15.694c14.471-23.031,11.006-45.451,11.006-45.451c3.261,5.299,1.834,13.656,1.834,13.656
			c15.694-28.942-7.372-49.973-7.372-49.973c10.703,9.109,18.218,5.01,18.218,5.01c-14.347-0.911-7.059-15.713-24.366-22.545
			c-17.307-6.832-33.247,4.327-33.247,4.327c3.416-7.97,6.604-38.94-28.921-43.723c-35.525-4.782-66.267,11.158-87.446,16.852
			c-21.178,5.693-25.96-12.525-25.96-12.525c-2.049,33.703,23.228,32.337,23.228,32.337c-15.485-0.228-34.386,7.97-44.178,26.644
			s6.604,26.188,6.604,26.188c-14.802,0-14.574-16.624-14.574-16.624s-10.248,33.703,23,35.752s53.97-13.891,53.97-13.891
			c-6.148,9.337-28.465,14.119-28.465,14.119c50.099-1.594,61.03-36.663,61.03-36.663c0.683,27.327-14.119,31.653-14.119,31.653
			c37.346-3.188,35.297-56.247,53.059-58.98c17.762-2.733,22.317,34.386,22.317,34.386s4.968-3.586,10.444-6.276
			c0,0-5.092,3.747-9.127,7.686c0,0,10.761,9.32,10.472,27.959c0,0,2.882-4.708,3.171-10.088c0,0,0.961,21.329,0.192,25.653
			L241.585,131.85z"/>
		<g>
			<g>
				<path style="fill:#F6B687;" d="M101.887,178.611c-2.048-5.592-4.423-11.091-8.413-15.599c-7.32-8.27-20.806-4.38-24.656,5.387
					c-3.04,7.715,0.237,16.604,4.073,23.43c3.531,6.283,8.171,12.688,15.131,15.537c5.801,2.374,16.402,3.186,18.71-4.431
					c1.909-6.3-1.409-14.603-3.485-20.506C102.801,181.158,102.353,179.882,101.887,178.611z"/>
				<path style="fill:#F6B687;" d="M92.822,179.906c0,0-5.09-2.695-5.389,3.493c-0.299,6.188,5.19,9.681,5.19,9.681
					s-15.17,2.595-16.667-13.273S89.828,165.335,92.822,179.906z"/>
			</g>
			<g>
				<path style="fill:#F6B687;" d="M241.649,178.611c2.048-5.592,4.423-11.091,8.413-15.599c7.32-8.27,20.807-4.38,24.656,5.387
					c3.04,7.715-0.237,16.604-4.073,23.43c-3.531,6.283-8.171,12.688-15.131,15.537c-5.801,2.374-16.402,3.186-18.71-4.431
					c-1.909-6.3,1.409-14.603,3.485-20.506C240.735,181.158,241.184,179.882,241.649,178.611z"/>
				<path style="fill:#F6B687;" d="M250.714,179.906c0,0,5.09-2.695,5.389,3.493c0.299,6.188-5.19,9.681-5.19,9.681
					s15.17,2.595,16.667-13.273C269.077,163.938,253.708,165.335,250.714,179.906z"/>
			</g>
		</g>
	</g>
</g>
</svg>
